<svg width="892" height="444" viewBox="0 0 892 444" fill="none" xmlns="http://www.w3.org/2000/svg">
<line x1="357.639" y1="338" x2="357.639" y2="106" stroke="white" stroke-width="3"/>
<path d="M439.018 187.484C444.226 187.484 448.318 186.492 451.294 184.508C454.27 182.524 455.758 179.548 455.758 175.58V175.332C455.758 171.612 454.27 168.76 451.294 166.776C448.401 164.709 443.937 163.676 437.902 163.676H413.722V187.484H439.018ZM434.554 150.78C439.514 150.78 443.482 149.829 446.458 147.928C449.434 145.944 450.922 142.968 450.922 139V138.752C450.922 135.28 449.6 132.593 446.954 130.692C444.392 128.708 440.63 127.716 435.67 127.716H413.722V150.78H434.554ZM398.718 114.2H437.654C447.657 114.2 455.221 116.763 460.346 121.888C464.232 125.773 466.174 130.568 466.174 136.272V136.52C466.174 139.165 465.802 141.521 465.058 143.588C464.397 145.572 463.488 147.349 462.33 148.92C461.256 150.408 459.933 151.731 458.362 152.888C456.874 154.045 455.345 155.037 453.774 155.864C456.337 156.773 458.652 157.848 460.718 159.088C462.868 160.245 464.686 161.651 466.174 163.304C467.745 164.957 468.944 166.9 469.77 169.132C470.597 171.364 471.01 173.968 471.01 176.944V177.192C471.01 181.077 470.225 184.508 468.654 187.484C467.166 190.46 465.017 192.94 462.206 194.924C459.396 196.908 456.006 198.437 452.038 199.512C448.07 200.504 443.689 201 438.894 201H398.718V114.2ZM506.559 202.364C499.119 202.364 493.373 200.091 489.323 195.544C485.272 190.997 483.247 184.88 483.247 177.192V135.528H498.251V172.728C498.251 177.853 499.449 181.821 501.847 184.632C504.327 187.36 507.799 188.724 512.263 188.724C516.644 188.724 520.199 187.319 522.927 184.508C525.655 181.615 527.019 177.605 527.019 172.48V135.528H542.023V201H527.019V190.832C524.869 193.973 522.183 196.701 518.959 199.016C515.735 201.248 511.601 202.364 506.559 202.364ZM558.405 135.528H573.409V145.448C574.484 143.96 575.641 142.555 576.881 141.232C578.121 139.909 579.526 138.711 581.097 137.636C582.75 136.561 584.569 135.735 586.553 135.156C588.62 134.495 590.893 134.164 593.373 134.164C598.085 134.164 602.053 135.239 605.277 137.388C608.584 139.455 611.105 142.224 612.841 145.696C615.486 142.224 618.586 139.455 622.141 137.388C625.778 135.239 630.077 134.164 635.037 134.164C642.229 134.164 647.85 136.355 651.901 140.736C655.952 145.035 657.977 151.193 657.977 159.212V201H642.973V163.8C642.973 158.592 641.816 154.624 639.501 151.896C637.186 149.168 633.921 147.804 629.705 147.804C625.572 147.804 622.182 149.209 619.537 152.02C616.974 154.748 615.693 158.757 615.693 164.048V201H600.689V163.676C600.689 158.551 599.532 154.624 597.217 151.896C594.902 149.168 591.637 147.804 587.421 147.804C583.205 147.804 579.816 149.251 577.253 152.144C574.69 155.037 573.409 159.047 573.409 164.172V201H558.405V135.528ZM707.477 189.344C710.04 189.344 712.437 188.848 714.669 187.856C716.984 186.864 718.968 185.5 720.621 183.764C722.357 181.945 723.721 179.755 724.713 177.192C725.705 174.547 726.201 171.612 726.201 168.388V168.14C726.201 164.999 725.705 162.147 724.713 159.584C723.721 156.939 722.357 154.707 720.621 152.888C718.968 151.069 716.984 149.664 714.669 148.672C712.437 147.68 710.04 147.184 707.477 147.184C704.915 147.184 702.476 147.68 700.161 148.672C697.847 149.664 695.821 151.111 694.085 153.012C692.349 154.831 690.944 157.021 689.869 159.584C688.877 162.147 688.381 164.999 688.381 168.14V168.388C688.381 171.529 688.877 174.423 689.869 177.068C690.944 179.631 692.349 181.821 694.085 183.64C695.821 185.459 697.847 186.864 700.161 187.856C702.476 188.848 704.915 189.344 707.477 189.344ZM710.949 202.364C705.576 202.364 701.112 201.207 697.557 198.892C694.003 196.577 691.068 193.891 688.753 190.832V201H673.749V110.48H688.753V146.44C691.151 142.968 694.127 140.075 697.681 137.76C701.236 135.363 705.659 134.164 710.949 134.164C714.835 134.164 718.596 134.908 722.233 136.396C725.871 137.884 729.095 140.075 731.905 142.968C734.799 145.861 737.113 149.416 738.849 153.632C740.585 157.848 741.453 162.684 741.453 168.14V168.388C741.453 173.844 740.585 178.68 738.849 182.896C737.196 187.112 734.923 190.667 732.029 193.56C729.219 196.453 725.953 198.644 722.233 200.132C718.596 201.62 714.835 202.364 710.949 202.364ZM755.208 110.48H770.212V201H755.208V110.48ZM832.228 163.676C831.98 161.279 831.443 159.047 830.616 156.98C829.789 154.831 828.673 153.012 827.268 151.524C825.863 149.953 824.168 148.713 822.184 147.804C820.283 146.895 818.092 146.44 815.612 146.44C810.983 146.44 807.139 148.052 804.08 151.276C801.104 154.417 799.285 158.551 798.624 163.676H832.228ZM817.348 202.488C812.636 202.488 808.213 201.661 804.08 200.008C800.029 198.355 796.475 196.04 793.416 193.064C790.44 190.088 788.084 186.533 786.348 182.4C784.612 178.184 783.744 173.555 783.744 168.512V168.264C783.744 163.552 784.529 159.129 786.1 154.996C787.671 150.863 789.861 147.267 792.672 144.208C795.565 141.067 798.955 138.628 802.84 136.892C806.725 135.073 811.024 134.164 815.736 134.164C820.944 134.164 825.491 135.115 829.376 137.016C833.344 138.917 836.609 141.48 839.172 144.704C841.817 147.928 843.801 151.689 845.124 155.988C846.447 160.204 847.108 164.668 847.108 169.38C847.108 170.041 847.067 170.744 846.984 171.488C846.984 172.149 846.943 172.852 846.86 173.596H798.748C799.575 178.969 801.683 183.103 805.072 185.996C808.544 188.807 812.719 190.212 817.596 190.212C821.316 190.212 824.54 189.551 827.268 188.228C829.996 186.905 832.683 184.963 835.328 182.4L844.132 190.212C840.991 193.932 837.229 196.908 832.848 199.14C828.549 201.372 823.383 202.488 817.348 202.488ZM439.018 311.484C444.226 311.484 448.318 310.492 451.294 308.508C454.27 306.524 455.758 303.548 455.758 299.58V299.332C455.758 295.612 454.27 292.76 451.294 290.776C448.401 288.709 443.937 287.676 437.902 287.676H413.722V311.484H439.018ZM434.554 274.78C439.514 274.78 443.482 273.829 446.458 271.928C449.434 269.944 450.922 266.968 450.922 263V262.752C450.922 259.28 449.6 256.593 446.954 254.692C444.392 252.708 440.63 251.716 435.67 251.716H413.722V274.78H434.554ZM398.718 238.2H437.654C447.657 238.2 455.221 240.763 460.346 245.888C464.232 249.773 466.174 254.568 466.174 260.272V260.52C466.174 263.165 465.802 265.521 465.058 267.588C464.397 269.572 463.488 271.349 462.33 272.92C461.256 274.408 459.933 275.731 458.362 276.888C456.874 278.045 455.345 279.037 453.774 279.864C456.337 280.773 458.652 281.848 460.718 283.088C462.868 284.245 464.686 285.651 466.174 287.304C467.745 288.957 468.944 290.9 469.77 293.132C470.597 295.364 471.01 297.968 471.01 300.944V301.192C471.01 305.077 470.225 308.508 468.654 311.484C467.166 314.46 465.017 316.94 462.206 318.924C459.396 320.908 456.006 322.437 452.038 323.512C448.07 324.504 443.689 325 438.894 325H398.718V238.2ZM528.879 287.676C528.631 285.279 528.093 283.047 527.267 280.98C526.44 278.831 525.324 277.012 523.919 275.524C522.513 273.953 520.819 272.713 518.835 271.804C516.933 270.895 514.743 270.44 512.263 270.44C507.633 270.44 503.789 272.052 500.731 275.276C497.755 278.417 495.936 282.551 495.275 287.676H528.879ZM513.999 326.488C509.287 326.488 504.864 325.661 500.731 324.008C496.68 322.355 493.125 320.04 490.067 317.064C487.091 314.088 484.735 310.533 482.999 306.4C481.263 302.184 480.395 297.555 480.395 292.512V292.264C480.395 287.552 481.18 283.129 482.751 278.996C484.321 274.863 486.512 271.267 489.323 268.208C492.216 265.067 495.605 262.628 499.491 260.892C503.376 259.073 507.675 258.164 512.387 258.164C517.595 258.164 522.141 259.115 526.027 261.016C529.995 262.917 533.26 265.48 535.823 268.704C538.468 271.928 540.452 275.689 541.775 279.988C543.097 284.204 543.759 288.668 543.759 293.38C543.759 294.041 543.717 294.744 543.635 295.488C543.635 296.149 543.593 296.852 543.511 297.596H495.399C496.225 302.969 498.333 307.103 501.723 309.996C505.195 312.807 509.369 314.212 514.247 314.212C517.967 314.212 521.191 313.551 523.919 312.228C526.647 310.905 529.333 308.963 531.979 306.4L540.783 314.212C537.641 317.932 533.88 320.908 529.499 323.14C525.2 325.372 520.033 326.488 513.999 326.488ZM601.235 287.676C600.987 285.279 600.449 283.047 599.623 280.98C598.796 278.831 597.68 277.012 596.275 275.524C594.869 273.953 593.175 272.713 591.191 271.804C589.289 270.895 587.099 270.44 584.619 270.44C579.989 270.44 576.145 272.052 573.087 275.276C570.111 278.417 568.292 282.551 567.631 287.676H601.235ZM586.355 326.488C581.643 326.488 577.22 325.661 573.087 324.008C569.036 322.355 565.481 320.04 562.423 317.064C559.447 314.088 557.091 310.533 555.355 306.4C553.619 302.184 552.751 297.555 552.751 292.512V292.264C552.751 287.552 553.536 283.129 555.107 278.996C556.677 274.863 558.868 271.267 561.679 268.208C564.572 265.067 567.961 262.628 571.847 260.892C575.732 259.073 580.031 258.164 584.743 258.164C589.951 258.164 594.497 259.115 598.383 261.016C602.351 262.917 605.616 265.48 608.179 268.704C610.824 271.928 612.808 275.689 614.131 279.988C615.453 284.204 616.115 288.668 616.115 293.38C616.115 294.041 616.073 294.744 615.991 295.488C615.991 296.149 615.949 296.852 615.867 297.596H567.755C568.581 302.969 570.689 307.103 574.079 309.996C577.551 312.807 581.725 314.212 586.603 314.212C590.323 314.212 593.547 313.551 596.275 312.228C599.003 310.905 601.689 308.963 604.335 306.4L613.139 314.212C609.997 317.932 606.236 320.908 601.855 323.14C597.556 325.372 592.389 326.488 586.355 326.488ZM651.146 326.24C646.434 326.24 641.64 325.413 636.762 323.76C631.968 322.107 627.504 319.668 623.37 316.444L630.066 306.276C633.621 308.921 637.217 310.947 640.854 312.352C644.574 313.675 648.129 314.336 651.518 314.336C654.742 314.336 657.222 313.716 658.958 312.476C660.777 311.153 661.686 309.417 661.686 307.268V307.02C661.686 305.78 661.273 304.705 660.446 303.796C659.702 302.887 658.628 302.101 657.222 301.44C655.9 300.779 654.329 300.159 652.51 299.58C650.774 299.001 648.956 298.423 647.054 297.844C644.657 297.183 642.218 296.397 639.738 295.488C637.341 294.579 635.15 293.421 633.166 292.016C631.265 290.528 629.694 288.709 628.454 286.56C627.214 284.411 626.594 281.765 626.594 278.624V278.376C626.594 275.317 627.173 272.548 628.33 270.068C629.57 267.588 631.224 265.48 633.29 263.744C635.44 262.008 637.92 260.685 640.73 259.776C643.624 258.867 646.682 258.412 649.906 258.412C654.04 258.412 658.214 259.073 662.43 260.396C666.646 261.719 670.49 263.537 673.962 265.852L668.01 276.516C664.869 274.615 661.686 273.127 658.462 272.052C655.238 270.895 652.262 270.316 649.534 270.316C646.641 270.316 644.368 270.936 642.714 272.176C641.144 273.416 640.358 274.987 640.358 276.888V277.136C640.358 278.293 640.772 279.327 641.598 280.236C642.425 281.063 643.5 281.848 644.822 282.592C646.228 283.253 647.798 283.915 649.534 284.576C651.353 285.155 653.213 285.733 655.114 286.312C657.512 287.056 659.909 287.924 662.306 288.916C664.704 289.908 666.853 291.148 668.754 292.636C670.738 294.041 672.35 295.777 673.59 297.844C674.83 299.911 675.45 302.432 675.45 305.408V305.656C675.45 309.128 674.83 312.145 673.59 314.708C672.35 317.271 670.614 319.42 668.382 321.156C666.233 322.809 663.67 324.091 660.694 325C657.718 325.827 654.536 326.24 651.146 326.24Z" fill="white"/>
<g clip-path="url(#clip0_202_2)">
<path d="M171.506 131.763C158.148 131.763 146.798 145.855 142.744 165.44C152.787 171.319 162.399 177.907 171.506 185.153C180.609 177.906 190.216 171.319 200.256 165.44C196.202 145.855 184.852 131.763 171.506 131.763Z" fill="#F0B625"/>
<path d="M200.815 116.387C203.973 114.043 207.625 112.45 211.491 111.732V111.732C210.102 113.919 209.362 116.455 209.356 119.045C209.35 121.627 210.065 124.159 211.421 126.356C212.776 128.553 214.719 130.327 217.029 131.478C219.338 132.628 221.924 133.11 224.493 132.868C227.062 132.627 229.512 131.671 231.567 130.11C233.622 128.549 235.2 126.444 236.123 124.033C237.046 121.621 237.276 119 236.789 116.465C236.302 113.929 235.117 111.581 233.366 109.684C231.616 107.787 229.37 106.417 226.883 105.73V105.73C221.805 104.035 216.394 103.591 211.109 104.434C205.823 105.278 200.818 107.384 196.519 110.575C190.776 114.945 186.322 120.79 183.632 127.49C185.839 128.621 187.911 129.999 189.809 131.598C191.949 125.579 195.769 120.301 200.815 116.387V116.387Z" fill="#F2F2F2"/>
<path d="M119.714 132.895C123.383 132.892 126.9 131.431 129.493 128.834C132.086 126.237 133.542 122.716 133.542 119.045C133.537 116.455 132.796 113.919 131.407 111.732V111.732C135.273 112.45 138.925 114.043 142.083 116.387C147.135 120.28 150.963 125.541 153.115 131.547C155.015 129.951 157.086 128.573 159.292 127.439C156.606 120.737 152.152 114.891 146.404 110.524C142.113 107.344 137.119 105.243 131.846 104.4C126.572 103.556 121.173 103.995 116.104 105.679V105.679C112.856 106.537 110.032 108.551 108.162 111.343C106.292 114.135 105.503 117.514 105.945 120.847C106.386 124.179 108.026 127.236 110.559 129.445C113.091 131.653 116.342 132.862 119.701 132.844L119.714 132.895Z" fill="#F2F2F2"/>
<g style="mix-blend-mode:overlay">
<path d="M171.506 131.763V185.178C180.609 177.932 190.216 171.344 200.256 165.466C196.202 145.855 184.852 131.763 171.506 131.763Z" fill="black"/>
</g>
<path d="M209.471 232.158C208.932 227.421 207.778 222.773 206.039 218.334C204.521 214.355 202.376 210.645 199.684 207.346C193.1 199.257 183.53 194.628 171.519 194.628C159.508 194.628 149.912 199.219 143.341 207.346C140.655 210.648 138.509 214.357 136.987 218.334C135.253 222.775 134.1 227.422 133.555 232.158C133.076 235.8 132.884 239.474 132.983 243.147C133.066 247.78 133.491 252.4 134.254 256.971C134.8 260.545 135.525 264.195 136.516 267.959C137.686 272.449 139.058 277.04 140.838 281.784C142.109 285.383 143.659 289.033 145.324 292.772C147.332 297.308 149.629 301.916 152.213 306.596C154.196 310.221 156.356 313.871 158.708 317.584C162.521 323.651 166.791 329.794 171.557 336C176.311 329.794 180.59 323.655 184.394 317.584C186.745 313.871 188.906 310.221 190.902 306.596C193.444 301.916 195.74 297.308 197.79 292.772C199.455 289.033 200.942 285.383 202.277 281.784C203.993 277.04 205.429 272.449 206.586 267.959C207.526 264.144 208.301 260.545 208.861 256.971C209.617 252.4 210.042 247.779 210.132 243.147C210.194 239.472 209.974 235.799 209.471 232.158Z" fill="#F0B625"/>
<path d="M46.7467 139.534C-17.7937 131.433 -7.24459 205.438 28.8005 199.766C20.8187 227.427 50.8393 256.831 126.45 229.729C127.34 223.479 129.193 217.404 131.941 211.721C138.435 198.519 149.417 190.304 163.334 188.027C146.163 174.991 103.382 146.63 46.7467 139.534Z" fill="#F2F2F2"/>
<path d="M296.253 139.534C239.618 146.63 196.799 174.991 179.666 188.027C193.647 190.304 204.577 198.519 211.059 211.721C213.813 217.402 215.666 223.477 216.55 229.729C292.161 256.831 322.181 227.427 314.212 199.766C350.245 205.438 360.806 131.433 296.253 139.534Z" fill="#F2F2F2"/>
<path d="M190.851 306.596C188.855 310.221 186.695 313.871 184.343 317.584H158.657C156.305 313.871 154.145 310.221 152.162 306.596H190.851Z" fill="#050505"/>
<path d="M202.226 281.784C200.892 285.383 199.404 289.033 197.739 292.772H145.273C143.608 289.033 142.109 285.383 140.787 281.784H202.226Z" fill="#050505"/>
<path d="M208.81 256.971C208.25 260.545 207.539 264.195 206.535 267.959H136.465C135.525 264.144 134.75 260.545 134.203 256.971H208.81Z" fill="#050505"/>
<path d="M210.055 243.147H132.957C132.859 239.474 133.05 235.8 133.529 232.158H209.471C209.948 235.801 210.143 239.474 210.055 243.147V243.147Z" fill="#050505"/>
<path d="M206.039 218.334H136.961C138.484 214.357 140.629 210.648 143.316 207.346H199.671C202.367 210.644 204.517 214.354 206.039 218.334V218.334Z" fill="#050505"/>
<g style="mix-blend-mode:overlay">
<path d="M210.119 243.147C210.029 247.779 209.604 252.4 208.848 256.971C208.289 260.545 207.513 264.195 206.573 267.959C205.416 272.449 203.967 277.04 202.251 281.784C200.98 285.383 199.43 289.033 197.778 292.772C195.761 297.308 193.46 301.916 190.876 306.596C188.893 310.221 186.733 313.871 184.381 317.584C180.568 323.651 176.298 329.794 171.532 336V194.666C183.543 194.666 193.138 199.257 199.709 207.384C202.396 210.686 204.541 214.395 206.064 218.372C207.797 222.813 208.951 227.46 209.496 232.196C209.984 235.825 210.192 239.486 210.119 243.147V243.147Z" fill="black"/>
</g>
</g>
<defs>
<clipPath id="clip0_202_2">
<rect width="343" height="232" fill="white" transform="translate(0 104)"/>
</clipPath>
</defs>
</svg>
